# xmcd CD database file
#
# Track frame offsets:
#	150
#	15740
#	32489
#	41714
#	69054
#	87368
#	107189
#	123648
#	149364
#	167781
#	185415
#
# Disc length: 2818 seconds
#
# Revision: 2
# Processed by: cddbd v1.5.2PL0 Copyright (c) Steve Scherf et al.
# Submitted via: CDex 1.51
#
DISCID=920b000b
DTITLE=Jimmy Bowskill - Jimmy Bowskill
DYEAR=2007
DGENRE=Blues
TTITLE0=Diamond Ring
TTITLE1=Rollie Snake Shake
TTITLE2=Nine
TTITLE3=Drifting Haze
TTITLE4=Far From Reality
TTITLE5=Black Sea Star
TTITLE6=The Kara-Dag
TTITLE7=Loser
TTITLE8=Mortisha
TTITLE9=Falling
TTITLE10=The Truth
EXTD=YEAR: 2007
EXTT0=
EXTT1=
EXTT2=
EXTT3=
EXTT4=
EXTT5=
EXTT6=
EXTT7=
EXTT8=
EXTT9=
EXTT10=
PLAYORDER=
